<svg width="574" height="448" viewBox="0 0 574 448" fill="none" xmlns="http://www.w3.org/2000/svg">
<path d="M41.847 405.822L29.3471 405.865L27.6454 365.245L18.3681 365.277L16.8472 405.907L4.34724 405.95L13.1438 237.169L31.8937 237.105L41.847 405.822ZM25.9222 318.376L22.5402 243.387L19.6723 318.397L18.336 355.902L27.6132 355.87L25.9222 318.376ZM72.9559 364.602C72.9323 357.701 72.5539 351.777 71.8208 346.832C71.0877 341.886 70.129 337.593 68.9446 333.951C67.76 330.244 66.4144 327.026 64.9076 324.297C63.4008 321.568 61.8621 319.001 60.2913 316.598C58.7206 314.194 57.1824 311.791 55.6768 309.387C54.1711 306.983 52.8271 304.254 51.6448 301.198C50.4624 298.142 49.5063 294.629 48.7766 290.661C48.0466 286.627 47.672 281.81 47.6528 276.211L47.5722 252.676C47.5668 251.114 47.7887 249.355 48.2377 247.4C48.7516 245.38 49.6893 243.522 51.0506 241.824C52.4118 240.062 54.2948 238.591 56.6996 237.41C59.1693 236.165 62.3573 235.536 66.2635 235.522C70.1697 235.509 73.3294 236.116 75.7425 237.345C78.2204 238.509 80.146 239.967 81.5192 241.72C82.8922 243.408 83.81 245.26 84.2726 247.277C84.8002 249.228 85.0666 250.985 85.072 252.548L85.2219 296.297L72.722 296.34L72.572 252.59C72.5667 251.028 72.367 249.759 71.9731 248.784C71.644 247.743 71.1856 246.964 70.5978 246.445C70.0099 245.861 69.325 245.473 68.5431 245.28C67.826 245.022 67.0769 244.894 66.2956 244.897C65.5144 244.9 64.7336 245.033 63.9532 245.296C63.2378 245.494 62.5881 245.886 62.0041 246.474C61.42 246.997 60.9344 247.78 60.5473 248.823C60.2252 249.801 60.0668 251.071 60.0721 252.633L60.1374 271.676C60.1626 279.033 60.8022 285.183 62.0561 290.127C63.31 295.07 64.8548 299.395 66.6904 303.099C68.5909 306.739 70.6205 310.052 72.7792 313.039C74.9379 316.027 76.9347 319.275 78.7697 322.784C80.6695 326.229 82.2458 330.26 83.4987 334.878C84.7512 339.431 85.3893 345.125 85.4127 351.961L85.5432 390.047C85.5459 390.828 85.4531 392.261 85.265 394.345C85.0766 396.364 84.4001 398.449 83.2356 400.602C82.0711 402.754 80.2221 404.648 77.6887 406.285C75.1554 407.986 71.5451 408.845 66.8576 408.861C62.1701 408.877 58.5539 408.043 56.0091 406.359C53.4645 404.74 51.6025 402.859 50.4233 400.714C49.2441 398.57 48.5534 396.489 48.3511 394.471C48.1487 392.389 48.0461 390.957 48.0434 390.175L47.8507 333.926L60.3506 333.883L60.5434 390.133C60.546 390.914 60.5818 391.858 60.6507 392.964C60.7194 394.006 60.9507 395.014 61.3447 395.989C61.7387 396.964 62.36 397.809 63.2088 398.522C64.0574 399.17 65.263 399.491 66.8255 399.486C68.3879 399.481 69.5912 399.151 70.4354 398.497C71.2793 397.778 71.8948 396.93 72.2821 395.952C72.6694 394.974 72.8938 393.964 72.9553 392.922C73.0166 391.815 73.046 390.871 73.0433 390.09L72.9559 364.602ZM106.893 236.848L107.44 396.222L119.939 396.179L119.972 405.554L94.9717 405.64L94.3934 236.891L106.893 236.848ZM166.846 405.393L154.346 405.436L152.645 364.817L143.367 364.849L141.846 405.479L129.347 405.522L138.143 236.741L156.893 236.676L166.846 405.393ZM150.921 317.947L147.539 242.958L144.672 317.969L143.335 355.474L152.613 355.442L150.921 317.947ZM213.721 405.233L201.221 405.275L188.432 320.944L188.721 405.318L176.221 405.361L175.643 236.612L188.143 236.569L188.411 314.694L200.643 236.526L213.143 236.484L200.889 308.401L199.554 317.781L200.953 327.151L213.721 405.233ZM283.784 389.367C283.601 392.884 282.83 396.011 281.473 398.75C280.891 399.924 280.146 401.099 279.239 402.274C278.331 403.384 277.228 404.364 275.928 405.215C274.629 406.131 273.069 406.852 271.248 407.379C269.492 407.906 267.442 408.174 265.099 408.182C262.755 408.19 260.671 407.936 258.846 407.422C257.086 406.907 255.554 406.196 254.249 405.289C252.944 404.447 251.834 403.474 250.918 402.371C250.003 401.202 249.25 400.033 248.66 398.863C247.284 396.133 246.492 393.011 246.284 389.496L246.06 323.871L258.559 323.828L258.784 389.453C258.787 390.234 258.823 391.178 258.892 392.285C258.96 393.326 259.192 394.335 259.586 395.31C259.98 396.285 260.601 397.129 261.45 397.842C262.298 398.491 263.504 398.812 265.066 398.807C266.629 398.801 267.832 398.472 268.676 397.818C269.52 397.099 270.136 396.25 270.523 395.272C270.91 394.294 271.135 393.284 271.196 392.243C271.258 391.136 271.287 390.191 271.284 389.41L270.76 236.286L283.259 236.243L283.784 389.367ZM294.618 245.091C294.611 243.138 295.061 241.281 295.966 239.52C296.937 237.759 298.201 236.225 299.759 234.917C301.382 233.61 303.234 232.594 305.315 231.871C307.461 231.082 309.705 230.684 312.049 230.676C314.523 230.667 316.836 231.05 318.987 231.824C321.203 232.598 323.127 233.665 324.759 235.027C326.391 236.323 327.666 237.849 328.584 239.604C329.566 241.358 330.061 243.212 330.068 245.165L330.571 392.137C330.578 394.22 330.097 396.175 329.127 398.001C328.221 399.762 326.957 401.296 325.334 402.604C323.711 403.912 321.794 404.96 319.583 405.749C317.437 406.537 315.127 406.936 312.653 406.944C310.309 406.952 308.062 406.569 305.911 405.796C303.825 405.087 301.966 404.084 300.334 402.787C298.767 401.491 297.493 399.998 296.51 398.308C295.593 396.554 295.131 394.732 295.124 392.844L294.618 245.091ZM308.209 392.506C308.213 393.483 308.606 394.36 309.39 395.139C310.239 395.917 311.315 396.304 312.617 396.3C313.984 396.295 315.089 395.901 315.933 395.117C316.842 394.332 317.295 393.452 317.291 392.475L316.924 285.249L308.209 392.506ZM316.785 244.918C316.782 243.811 316.29 242.868 315.311 242.091C314.397 241.312 313.321 240.925 312.084 240.93C310.782 240.934 309.709 241.328 308.866 242.113C308.087 242.897 307.7 243.842 307.703 244.949L308.071 352.272L316.785 244.918ZM379.54 404.664L367.04 404.707L350.987 279.761L351.416 404.761L342.041 404.793L341.462 236.044L353.962 236.001L370.015 360.947L369.587 235.947L378.962 235.915L379.54 404.664ZM413.774 363.433C413.751 356.532 413.372 350.609 412.639 345.664C411.906 340.718 410.947 336.425 409.763 332.783C408.578 329.076 407.233 325.858 405.726 323.129C404.219 320.4 402.68 317.833 401.11 315.43C399.539 313.026 398.001 310.623 396.495 308.219C394.989 305.815 393.645 303.085 392.463 300.03C391.281 296.974 390.325 293.461 389.595 289.492C388.865 285.458 388.49 280.642 388.471 275.043L388.39 251.508C388.385 249.946 388.607 248.187 389.056 246.232C389.57 244.212 390.508 242.354 391.869 240.656C393.23 238.894 395.113 237.422 397.518 236.242C399.988 234.997 403.176 234.367 407.082 234.354C410.988 234.341 414.148 234.948 416.561 236.177C419.039 237.34 420.964 238.799 422.338 240.552C423.71 242.24 424.628 244.092 425.091 246.109C425.618 248.06 425.885 249.817 425.89 251.38L426.04 295.129L413.54 295.172L413.39 251.422C413.385 249.86 413.185 248.591 412.791 247.616C412.462 246.575 412.004 245.796 411.416 245.277C410.828 244.693 410.143 244.305 409.361 244.112C408.644 243.854 407.895 243.726 407.114 243.729C406.333 243.732 405.552 243.865 404.772 244.128C404.056 244.325 403.406 244.718 402.822 245.306C402.238 245.829 401.753 246.612 401.366 247.655C401.043 248.633 400.885 249.903 400.89 251.465L400.956 270.508C400.981 277.865 401.62 284.015 402.874 288.959C404.128 293.902 405.673 298.226 407.509 301.931C409.409 305.57 411.439 308.884 413.598 311.871C415.756 314.859 417.753 318.107 419.588 321.616C421.488 325.06 423.064 329.092 424.317 333.71C425.57 338.263 426.208 343.957 426.231 350.793L426.362 388.879C426.364 389.66 426.271 391.093 426.083 393.177C425.895 395.195 425.218 397.281 424.054 399.434C422.889 401.586 421.04 403.48 418.507 405.117C415.974 406.818 412.363 407.677 407.676 407.693C402.988 407.709 399.372 406.875 396.827 405.191C394.283 403.572 392.421 401.69 391.242 399.546C390.062 397.402 389.372 395.321 389.169 393.303C388.967 391.22 388.864 389.789 388.862 389.007L388.669 332.758L401.169 332.715L401.362 388.964C401.364 389.746 401.4 390.69 401.469 391.796C401.538 392.838 401.769 393.846 402.163 394.821C402.557 395.796 403.178 396.641 404.027 397.354C404.876 398.002 406.081 398.323 407.644 398.318C409.206 398.313 410.41 397.983 411.254 397.329C412.098 396.61 412.713 395.762 413.1 394.784C413.488 393.806 413.712 392.796 413.774 391.754C413.835 390.647 413.864 389.703 413.862 388.922L413.774 363.433ZM457.524 363.284C457.5 356.383 457.122 350.459 456.389 345.514C455.656 340.568 454.697 336.275 453.513 332.633C452.328 328.926 450.982 325.708 449.476 322.979C447.969 320.25 446.43 317.683 444.859 315.28C443.289 312.876 441.75 310.473 440.245 308.069C438.739 305.665 437.395 302.935 436.213 299.88C435.03 296.824 434.074 293.311 433.345 289.343C432.615 285.309 432.24 280.492 432.221 274.893L432.14 251.358C432.135 249.796 432.357 248.037 432.806 246.082C433.32 244.062 434.257 242.204 435.619 240.506C436.98 238.744 438.863 237.273 441.268 236.092C443.737 234.847 446.925 234.218 450.832 234.204C454.738 234.191 457.897 234.798 460.311 236.027C462.788 237.191 464.714 238.649 466.087 240.402C467.46 242.09 468.378 243.942 468.841 245.959C469.368 247.91 469.635 249.667 469.64 251.23L469.79 294.979L457.29 295.022L457.14 251.272C457.135 249.71 456.935 248.441 456.541 247.466C456.212 246.425 455.754 245.646 455.166 245.127C454.578 244.543 453.893 244.155 453.111 243.962C452.394 243.704 451.645 243.576 450.864 243.579C450.082 243.582 449.302 243.715 448.521 243.978C447.806 244.176 447.156 244.568 446.572 245.156C445.988 245.679 445.502 246.462 445.115 247.505C444.793 248.483 444.635 249.753 444.64 251.315L444.705 270.358C444.731 277.715 445.37 283.865 446.624 288.809C447.878 293.752 449.423 298.077 451.258 301.781C453.159 305.421 455.189 308.734 457.347 311.721C459.506 314.709 461.503 317.957 463.338 321.466C465.238 324.911 466.814 328.942 468.067 333.56C469.319 338.113 469.957 343.807 469.981 350.643L470.111 388.729C470.114 389.51 470.021 390.943 469.833 393.027C469.645 395.046 468.968 397.131 467.804 399.284C466.639 401.436 464.79 403.33 462.257 404.967C459.723 406.668 456.113 407.527 451.426 407.543C446.738 407.559 443.122 406.725 440.577 405.041C438.033 403.422 436.171 401.541 434.991 399.396C433.812 397.252 433.121 395.171 432.919 393.153C432.717 391.071 432.614 389.639 432.611 388.857L432.419 332.608L444.919 332.565L445.111 388.814C445.114 389.596 445.15 390.54 445.219 391.646C445.287 392.688 445.519 393.696 445.913 394.671C446.307 395.646 446.928 396.491 447.777 397.204C448.625 397.852 449.831 398.173 451.393 398.168C452.956 398.163 454.159 397.833 455.003 397.179C455.847 396.46 456.463 395.612 456.85 394.634C457.237 393.656 457.462 392.646 457.523 391.604C457.585 390.497 457.614 389.553 457.611 388.772L457.524 363.284ZM516.986 388.568C516.989 389.349 516.896 390.782 516.708 392.866C516.519 394.885 515.843 396.971 514.678 399.123C513.514 401.275 511.665 403.17 509.131 404.806C506.598 406.508 502.988 407.366 498.3 407.382C493.613 407.398 489.997 406.564 487.452 404.88C484.907 403.262 483.045 401.38 481.866 399.235C480.687 397.091 479.996 395.01 479.794 392.993C479.591 390.91 479.489 389.478 479.486 388.697L479.015 251.197C479.013 250.677 479.043 249.895 479.105 248.853C479.166 247.812 479.358 246.672 479.679 245.433C480 244.13 480.549 242.826 481.326 241.522C482.102 240.152 483.172 238.911 484.535 237.8C485.899 236.688 487.654 235.803 489.8 235.145C491.946 234.421 494.581 234.054 497.706 234.043C500.831 234.033 503.469 234.382 505.62 235.091C507.771 235.734 509.532 236.607 510.903 237.709C512.273 238.811 513.352 240.045 514.138 241.409C514.924 242.708 515.481 244.009 515.811 245.31C516.141 246.545 516.34 247.684 516.409 248.726C516.478 249.767 516.513 250.548 516.515 251.069L516.986 388.568ZM491.986 388.654C491.989 389.435 492.025 390.379 492.093 391.486C492.162 392.527 492.393 393.535 492.787 394.511C493.181 395.486 493.803 396.33 494.652 397.043C495.5 397.691 496.706 398.013 498.268 398.007C499.831 398.002 501.034 397.672 501.878 397.018C502.722 396.299 503.338 395.451 503.725 394.473C504.112 393.495 504.337 392.485 504.398 391.443C504.459 390.336 504.489 389.392 504.486 388.611L504.015 251.112C504.012 250.331 503.977 249.484 503.908 248.573C503.84 247.662 503.61 246.849 503.216 246.134C502.823 245.354 502.202 244.705 501.354 244.187C500.506 243.669 499.301 243.413 497.738 243.418C496.176 243.424 494.972 243.688 494.128 244.212C493.283 244.736 492.667 245.389 492.279 246.172C491.891 246.889 491.666 247.704 491.604 248.615C491.542 249.527 491.512 250.373 491.515 251.155L491.986 388.654ZM567.039 404.022L554.539 404.065L538.486 279.119L538.914 404.118L529.539 404.15L528.961 235.401L541.461 235.358L557.514 360.304L557.086 235.305L566.461 235.273L567.039 404.022Z" fill="white"/>
<path d="M41.847 405.822L29.3471 405.865L27.6454 365.245L18.3681 365.277L16.8472 405.907L4.34724 405.95L13.1438 237.169L31.8937 237.105L41.847 405.822ZM25.9222 318.376L22.5402 243.387L19.6723 318.397L18.336 355.902L27.6132 355.87L25.9222 318.376ZM72.9559 364.602C72.9323 357.701 72.5539 351.777 71.8208 346.832C71.0877 341.886 70.129 337.593 68.9446 333.951C67.76 330.244 66.4144 327.026 64.9076 324.297C63.4008 321.568 61.8621 319.001 60.2913 316.598C58.7206 314.194 57.1824 311.791 55.6768 309.387C54.1711 306.983 52.8271 304.254 51.6448 301.198C50.4624 298.142 49.5063 294.629 48.7766 290.661C48.0466 286.627 47.672 281.81 47.6528 276.211L47.5722 252.676C47.5668 251.114 47.7887 249.355 48.2377 247.4C48.7516 245.38 49.6893 243.522 51.0506 241.824C52.4118 240.062 54.2948 238.591 56.6996 237.41C59.1693 236.165 62.3573 235.536 66.2635 235.522C70.1697 235.509 73.3294 236.116 75.7425 237.345C78.2204 238.509 80.146 239.967 81.5192 241.72C82.8922 243.408 83.81 245.26 84.2726 247.277C84.8002 249.228 85.0666 250.985 85.072 252.548L85.2219 296.297L72.722 296.34L72.572 252.59C72.5667 251.028 72.367 249.759 71.9731 248.784C71.644 247.743 71.1856 246.964 70.5978 246.445C70.0099 245.861 69.325 245.473 68.5431 245.28C67.826 245.022 67.0769 244.894 66.2956 244.897C65.5144 244.9 64.7336 245.033 63.9532 245.296C63.2378 245.494 62.5881 245.886 62.0041 246.474C61.42 246.997 60.9344 247.78 60.5473 248.823C60.2252 249.801 60.0668 251.071 60.0721 252.633L60.1374 271.676C60.1626 279.033 60.8022 285.183 62.0561 290.127C63.31 295.07 64.8548 299.395 66.6904 303.099C68.5909 306.739 70.6205 310.052 72.7792 313.039C74.9379 316.027 76.9347 319.275 78.7697 322.784C80.6695 326.229 82.2458 330.26 83.4987 334.878C84.7512 339.431 85.3893 345.125 85.4127 351.961L85.5432 390.047C85.5459 390.828 85.4531 392.261 85.265 394.345C85.0766 396.364 84.4001 398.449 83.2356 400.602C82.0711 402.754 80.2221 404.648 77.6887 406.285C75.1554 407.986 71.5451 408.845 66.8576 408.861C62.1701 408.877 58.5539 408.043 56.0091 406.359C53.4645 404.74 51.6025 402.859 50.4233 400.714C49.2441 398.57 48.5534 396.489 48.3511 394.471C48.1487 392.389 48.0461 390.957 48.0434 390.175L47.8507 333.926L60.3506 333.883L60.5434 390.133C60.546 390.914 60.5818 391.858 60.6507 392.964C60.7194 394.006 60.9507 395.014 61.3447 395.989C61.7387 396.964 62.36 397.809 63.2088 398.522C64.0574 399.17 65.263 399.491 66.8255 399.486C68.3879 399.481 69.5912 399.151 70.4354 398.497C71.2793 397.778 71.8948 396.93 72.2821 395.952C72.6694 394.974 72.8938 393.964 72.9553 392.922C73.0166 391.815 73.046 390.871 73.0433 390.09L72.9559 364.602ZM106.893 236.848L107.44 396.222L119.939 396.179L119.972 405.554L94.9717 405.64L94.3934 236.891L106.893 236.848ZM166.846 405.393L154.346 405.436L152.645 364.817L143.367 364.849L141.846 405.479L129.347 405.522L138.143 236.741L156.893 236.676L166.846 405.393ZM150.921 317.947L147.539 242.958L144.672 317.969L143.335 355.474L152.613 355.442L150.921 317.947ZM213.721 405.233L201.221 405.275L188.432 320.944L188.721 405.318L176.221 405.361L175.643 236.612L188.143 236.569L188.411 314.694L200.643 236.526L213.143 236.484L200.889 308.401L199.554 317.781L200.953 327.151L213.721 405.233ZM283.784 389.367C283.601 392.884 282.83 396.011 281.473 398.75C280.891 399.924 280.146 401.099 279.239 402.274C278.331 403.384 277.228 404.364 275.928 405.215C274.629 406.131 273.069 406.852 271.248 407.379C269.492 407.906 267.442 408.174 265.099 408.182C262.755 408.19 260.671 407.936 258.846 407.422C257.086 406.907 255.554 406.196 254.249 405.289C252.944 404.447 251.834 403.474 250.918 402.371C250.003 401.202 249.25 400.033 248.66 398.863C247.284 396.133 246.492 393.011 246.284 389.496L246.06 323.871L258.559 323.828L258.784 389.453C258.787 390.234 258.823 391.178 258.892 392.285C258.96 393.326 259.192 394.335 259.586 395.31C259.98 396.285 260.601 397.129 261.45 397.842C262.298 398.491 263.504 398.812 265.066 398.807C266.629 398.801 267.832 398.472 268.676 397.818C269.52 397.099 270.136 396.25 270.523 395.272C270.91 394.294 271.135 393.284 271.196 392.243C271.258 391.136 271.287 390.191 271.284 389.41L270.76 236.286L283.259 236.243L283.784 389.367ZM294.618 245.091C294.611 243.138 295.061 241.281 295.966 239.52C296.937 237.759 298.201 236.225 299.759 234.917C301.382 233.61 303.234 232.594 305.315 231.871C307.461 231.082 309.705 230.684 312.049 230.676C314.523 230.667 316.836 231.05 318.987 231.824C321.203 232.598 323.127 233.665 324.759 235.027C326.391 236.323 327.666 237.849 328.584 239.604C329.566 241.358 330.061 243.212 330.068 245.165L330.571 392.137C330.578 394.22 330.097 396.175 329.127 398.001C328.221 399.762 326.957 401.296 325.334 402.604C323.711 403.912 321.794 404.96 319.583 405.749C317.437 406.537 315.127 406.936 312.653 406.944C310.309 406.952 308.062 406.569 305.911 405.796C303.825 405.087 301.966 404.084 300.334 402.787C298.767 401.491 297.493 399.998 296.51 398.308C295.593 396.554 295.131 394.732 295.124 392.844L294.618 245.091ZM308.209 392.506C308.213 393.483 308.606 394.36 309.39 395.139C310.239 395.917 311.315 396.304 312.617 396.3C313.984 396.295 315.089 395.901 315.933 395.117C316.842 394.332 317.295 393.452 317.291 392.475L316.924 285.249L308.209 392.506ZM316.785 244.918C316.782 243.811 316.29 242.868 315.311 242.091C314.397 241.312 313.321 240.925 312.084 240.93C310.782 240.934 309.709 241.328 308.866 242.113C308.087 242.897 307.7 243.842 307.703 244.949L308.071 352.272L316.785 244.918ZM379.54 404.664L367.04 404.707L350.987 279.761L351.416 404.761L342.041 404.793L341.462 236.044L353.962 236.001L370.015 360.947L369.587 235.947L378.962 235.915L379.54 404.664ZM413.774 363.433C413.751 356.532 413.372 350.609 412.639 345.664C411.906 340.718 410.947 336.425 409.763 332.783C408.578 329.076 407.233 325.858 405.726 323.129C404.219 320.4 402.68 317.833 401.11 315.43C399.539 313.026 398.001 310.623 396.495 308.219C394.989 305.815 393.645 303.085 392.463 300.03C391.281 296.974 390.325 293.461 389.595 289.492C388.865 285.458 388.49 280.642 388.471 275.043L388.39 251.508C388.385 249.946 388.607 248.187 389.056 246.232C389.57 244.212 390.508 242.354 391.869 240.656C393.23 238.894 395.113 237.422 397.518 236.242C399.988 234.997 403.176 234.367 407.082 234.354C410.988 234.341 414.148 234.948 416.561 236.177C419.039 237.34 420.964 238.799 422.338 240.552C423.71 242.24 424.628 244.092 425.091 246.109C425.618 248.06 425.885 249.817 425.89 251.38L426.04 295.129L413.54 295.172L413.39 251.422C413.385 249.86 413.185 248.591 412.791 247.616C412.462 246.575 412.004 245.796 411.416 245.277C410.828 244.693 410.143 244.305 409.361 244.112C408.644 243.854 407.895 243.726 407.114 243.729C406.333 243.732 405.552 243.865 404.772 244.128C404.056 244.325 403.406 244.718 402.822 245.306C402.238 245.829 401.753 246.612 401.366 247.655C401.043 248.633 400.885 249.903 400.89 251.465L400.956 270.508C400.981 277.865 401.62 284.015 402.874 288.959C404.128 293.902 405.673 298.226 407.509 301.931C409.409 305.57 411.439 308.884 413.598 311.871C415.756 314.859 417.753 318.107 419.588 321.616C421.488 325.06 423.064 329.092 424.317 333.71C425.57 338.263 426.208 343.957 426.231 350.793L426.362 388.879C426.364 389.66 426.271 391.093 426.083 393.177C425.895 395.195 425.218 397.281 424.054 399.434C422.889 401.586 421.04 403.48 418.507 405.117C415.974 406.818 412.363 407.677 407.676 407.693C402.988 407.709 399.372 406.875 396.827 405.191C394.283 403.572 392.421 401.69 391.242 399.546C390.062 397.402 389.372 395.321 389.169 393.303C388.967 391.22 388.864 389.789 388.862 389.007L388.669 332.758L401.169 332.715L401.362 388.964C401.364 389.746 401.4 390.69 401.469 391.796C401.538 392.838 401.769 393.846 402.163 394.821C402.557 395.796 403.178 396.641 404.027 397.354C404.876 398.002 406.081 398.323 407.644 398.318C409.206 398.313 410.41 397.983 411.254 397.329C412.098 396.61 412.713 395.762 413.1 394.784C413.488 393.806 413.712 392.796 413.774 391.754C413.835 390.647 413.864 389.703 413.862 388.922L413.774 363.433ZM457.524 363.284C457.5 356.383 457.122 350.459 456.389 345.514C455.656 340.568 454.697 336.275 453.513 332.633C452.328 328.926 450.982 325.708 449.476 322.979C447.969 320.25 446.43 317.683 444.859 315.28C443.289 312.876 441.75 310.473 440.245 308.069C438.739 305.665 437.395 302.935 436.213 299.88C435.03 296.824 434.074 293.311 433.345 289.343C432.615 285.309 432.24 280.492 432.221 274.893L432.14 251.358C432.135 249.796 432.357 248.037 432.806 246.082C433.32 244.062 434.257 242.204 435.619 240.506C436.98 238.744 438.863 237.273 441.268 236.092C443.737 234.847 446.925 234.218 450.832 234.204C454.738 234.191 457.897 234.798 460.311 236.027C462.788 237.191 464.714 238.649 466.087 240.402C467.46 242.09 468.378 243.942 468.841 245.959C469.368 247.91 469.635 249.667 469.64 251.23L469.79 294.979L457.29 295.022L457.14 251.272C457.135 249.71 456.935 248.441 456.541 247.466C456.212 246.425 455.754 245.646 455.166 245.127C454.578 244.543 453.893 244.155 453.111 243.962C452.394 243.704 451.645 243.576 450.864 243.579C450.082 243.582 449.302 243.715 448.521 243.978C447.806 244.176 447.156 244.568 446.572 245.156C445.988 245.679 445.502 246.462 445.115 247.505C444.793 248.483 444.635 249.753 444.64 251.315L444.705 270.358C444.731 277.715 445.37 283.865 446.624 288.809C447.878 293.752 449.423 298.077 451.258 301.781C453.159 305.421 455.189 308.734 457.347 311.721C459.506 314.709 461.503 317.957 463.338 321.466C465.238 324.911 466.814 328.942 468.067 333.56C469.319 338.113 469.957 343.807 469.981 350.643L470.111 388.729C470.114 389.51 470.021 390.943 469.833 393.027C469.645 395.046 468.968 397.131 467.804 399.284C466.639 401.436 464.79 403.33 462.257 404.967C459.723 406.668 456.113 407.527 451.426 407.543C446.738 407.559 443.122 406.725 440.577 405.041C438.033 403.422 436.171 401.541 434.991 399.396C433.812 397.252 433.121 395.171 432.919 393.153C432.717 391.071 432.614 389.639 432.611 388.857L432.419 332.608L444.919 332.565L445.111 388.814C445.114 389.596 445.15 390.54 445.219 391.646C445.287 392.688 445.519 393.696 445.913 394.671C446.307 395.646 446.928 396.491 447.777 397.204C448.625 397.852 449.831 398.173 451.393 398.168C452.956 398.163 454.159 397.833 455.003 397.179C455.847 396.46 456.463 395.612 456.85 394.634C457.237 393.656 457.462 392.646 457.523 391.604C457.585 390.497 457.614 389.553 457.611 388.772L457.524 363.284ZM516.986 388.568C516.989 389.349 516.896 390.782 516.708 392.866C516.519 394.885 515.843 396.971 514.678 399.123C513.514 401.275 511.665 403.17 509.131 404.806C506.598 406.508 502.988 407.366 498.3 407.382C493.613 407.398 489.997 406.564 487.452 404.88C484.907 403.262 483.045 401.38 481.866 399.235C480.687 397.091 479.996 395.01 479.794 392.993C479.591 390.91 479.489 389.478 479.486 388.697L479.015 251.197C479.013 250.677 479.043 249.895 479.105 248.853C479.166 247.812 479.358 246.672 479.679 245.433C480 244.13 480.549 242.826 481.326 241.522C482.102 240.152 483.172 238.911 484.535 237.8C485.899 236.688 487.654 235.803 489.8 235.145C491.946 234.421 494.581 234.054 497.706 234.043C500.831 234.033 503.469 234.382 505.62 235.091C507.771 235.734 509.532 236.607 510.903 237.709C512.273 238.811 513.352 240.045 514.138 241.409C514.924 242.708 515.481 244.009 515.811 245.31C516.141 246.545 516.34 247.684 516.409 248.726C516.478 249.767 516.513 250.548 516.515 251.069L516.986 388.568ZM491.986 388.654C491.989 389.435 492.025 390.379 492.093 391.486C492.162 392.527 492.393 393.535 492.787 394.511C493.181 395.486 493.803 396.33 494.652 397.043C495.5 397.691 496.706 398.013 498.268 398.007C499.831 398.002 501.034 397.672 501.878 397.018C502.722 396.299 503.338 395.451 503.725 394.473C504.112 393.495 504.337 392.485 504.398 391.443C504.459 390.336 504.489 389.392 504.486 388.611L504.015 251.112C504.012 250.331 503.977 249.484 503.908 248.573C503.84 247.662 503.61 246.849 503.216 246.134C502.823 245.354 502.202 244.705 501.354 244.187C500.506 243.669 499.301 243.413 497.738 243.418C496.176 243.424 494.972 243.688 494.128 244.212C493.283 244.736 492.667 245.389 492.279 246.172C491.891 246.889 491.666 247.704 491.604 248.615C491.542 249.527 491.512 250.373 491.515 251.155L491.986 388.654ZM567.039 404.022L554.539 404.065L538.486 279.119L538.914 404.118L529.539 404.15L528.961 235.401L541.461 235.358L557.514 360.304L557.086 235.305L566.461 235.273L567.039 404.022Z" fill="url(#paint0_linear_13_18)" fill-opacity="0.2"/>
<path d="M48.8164 61.625H33.1914V124.125H45.6914V133.5H33.1914V221H20.6914V52.25H48.8164V61.625ZM95.6914 121C95.6914 125.688 94.9102 128.943 93.3477 130.766C91.7852 132.589 89.4414 133.5 86.3164 133.5C87.8789 133.5 89.2461 133.858 90.418 134.574C91.5898 135.29 92.5664 136.234 93.3477 137.406C94.1289 138.578 94.7148 139.913 95.1055 141.41C95.4961 142.908 95.6914 144.438 95.6914 146V221H83.1914V142.875C83.1914 141.312 82.8333 140.108 82.1172 139.262C81.401 138.415 80.457 137.797 79.2852 137.406C78.1133 137.016 76.7786 136.788 75.2812 136.723C73.7839 136.658 72.2539 136.625 70.6914 136.625V221H58.1914V52.25H70.6914C73.8164 52.25 76.8763 52.3477 79.8711 52.543C82.8659 52.6732 85.5352 53.2266 87.8789 54.2031C90.2227 55.1797 92.1107 56.7422 93.543 58.8906C94.9753 60.974 95.6914 63.9688 95.6914 67.875V121ZM83.1914 67.875C83.1914 66.3125 82.9635 65.1081 82.5078 64.2617C82.1172 63.4154 81.4336 62.7969 80.457 62.4062C79.4805 62.0156 78.1784 61.7878 76.5508 61.7227C74.9883 61.6576 73.0352 61.625 70.6914 61.625V130.375C72.2539 130.375 73.7839 130.342 75.2812 130.277C76.7786 130.212 78.1133 129.984 79.2852 129.594C80.457 129.203 81.401 128.585 82.1172 127.738C82.8333 126.892 83.1914 125.688 83.1914 124.125V67.875ZM145.691 205.375C145.691 206.156 145.594 207.589 145.398 209.672C145.203 211.69 144.52 213.773 143.348 215.922C142.176 218.07 140.32 219.958 137.781 221.586C135.242 223.279 131.629 224.125 126.941 224.125C122.254 224.125 118.641 223.279 116.102 221.586C113.562 219.958 111.707 218.07 110.535 215.922C109.363 213.773 108.68 211.69 108.484 209.672C108.289 207.589 108.191 206.156 108.191 205.375V67.875C108.191 67.3542 108.224 66.5729 108.289 65.5312C108.354 64.4896 108.549 63.3503 108.875 62.1133C109.201 60.8112 109.754 59.5091 110.535 58.207C111.316 56.8398 112.391 55.6029 113.758 54.4961C115.125 53.3893 116.883 52.5104 119.031 51.8594C121.18 51.1432 123.816 50.7852 126.941 50.7852C130.066 50.7852 132.703 51.1432 134.852 51.8594C137 52.5104 138.758 53.3893 140.125 54.4961C141.492 55.6029 142.566 56.8398 143.348 58.207C144.129 59.5091 144.682 60.8112 145.008 62.1133C145.333 63.3503 145.529 64.4896 145.594 65.5312C145.659 66.5729 145.691 67.3542 145.691 67.875V205.375ZM120.691 205.375C120.691 206.156 120.724 207.1 120.789 208.207C120.854 209.249 121.082 210.258 121.473 211.234C121.863 212.211 122.482 213.057 123.328 213.773C124.174 214.424 125.379 214.75 126.941 214.75C128.504 214.75 129.708 214.424 130.555 213.773C131.401 213.057 132.02 212.211 132.41 211.234C132.801 210.258 133.029 209.249 133.094 208.207C133.159 207.1 133.191 206.156 133.191 205.375V67.875C133.191 67.0938 133.159 66.2474 133.094 65.3359C133.029 64.4245 132.801 63.6107 132.41 62.8945C132.02 62.1133 131.401 61.4622 130.555 60.9414C129.708 60.4206 128.504 60.1602 126.941 60.1602C125.379 60.1602 124.174 60.4206 123.328 60.9414C122.482 61.4622 121.863 62.1133 121.473 62.8945C121.082 63.6107 120.854 64.4245 120.789 65.3359C120.724 66.2474 120.691 67.0938 120.691 67.875V205.375ZM195.691 221H183.191L167.566 96V221H158.191V52.25H170.691L186.316 177.25V52.25H195.691V221ZM242.566 52.25V61.625H230.066V221H217.566V61.625H205.066V52.25H242.566ZM280.066 61.625H264.441V127.25H276.941V136.625H264.441V211.625H280.066V221H251.941V52.25H280.066V61.625ZM326.941 221H314.441L298.816 96V221H289.441V52.25H301.941L317.566 177.25V52.25H326.941V221ZM364.441 67.875C364.441 66.3125 364.214 65.1081 363.758 64.2617C363.367 63.4154 362.684 62.7969 361.707 62.4062C360.73 62.0156 359.428 61.7878 357.801 61.7227C356.238 61.6576 354.285 61.625 351.941 61.625V211.625C354.285 211.625 356.238 211.592 357.801 211.527C359.428 211.462 360.73 211.234 361.707 210.844C362.684 210.453 363.367 209.835 363.758 208.988C364.214 208.142 364.441 206.938 364.441 205.375V67.875ZM376.941 205.375C376.941 209.281 376.225 212.309 374.793 214.457C373.361 216.54 371.473 218.07 369.129 219.047C366.785 220.023 364.116 220.609 361.121 220.805C358.126 220.935 355.066 221 351.941 221H339.441V52.25H351.941C355.066 52.25 358.126 52.3477 361.121 52.543C364.116 52.6732 366.785 53.2266 369.129 54.2031C371.473 55.1797 373.361 56.7422 374.793 58.8906C376.225 60.974 376.941 63.9688 376.941 67.875V205.375ZM437.684 67.875C437.684 66.3125 437.456 65.1081 437 64.2617C436.609 63.4154 435.926 62.7969 434.949 62.4062C433.973 62.0156 432.671 61.7878 431.043 61.7227C429.48 61.6576 427.527 61.625 425.184 61.625V211.625C427.527 211.625 429.48 211.592 431.043 211.527C432.671 211.462 433.973 211.234 434.949 210.844C435.926 210.453 436.609 209.835 437 208.988C437.456 208.142 437.684 206.938 437.684 205.375V67.875ZM450.184 205.375C450.184 209.281 449.467 212.309 448.035 214.457C446.603 216.54 444.715 218.07 442.371 219.047C440.027 220.023 437.358 220.609 434.363 220.805C431.368 220.935 428.309 221 425.184 221H412.684V52.25H425.184C428.309 52.25 431.368 52.3477 434.363 52.543C437.358 52.6732 440.027 53.2266 442.371 54.2031C444.715 55.1797 446.603 56.7422 448.035 58.8906C449.467 60.974 450.184 63.9688 450.184 67.875V205.375ZM490.809 61.625H475.184V127.25H487.684V136.625H475.184V211.625H490.809V221H462.684V52.25H490.809V61.625ZM512.781 105.375L515.809 167.875L518.836 105.375L522.059 52.25H534.559L522.059 221H509.559L497.059 52.25H509.559L512.781 105.375ZM556.434 205.375V221H540.809V205.375H556.434Z" fill="white"/>
<path d="M48.8164 61.625H33.1914V124.125H45.6914V133.5H33.1914V221H20.6914V52.25H48.8164V61.625ZM95.6914 121C95.6914 125.688 94.9102 128.943 93.3477 130.766C91.7852 132.589 89.4414 133.5 86.3164 133.5C87.8789 133.5 89.2461 133.858 90.418 134.574C91.5898 135.29 92.5664 136.234 93.3477 137.406C94.1289 138.578 94.7148 139.913 95.1055 141.41C95.4961 142.908 95.6914 144.438 95.6914 146V221H83.1914V142.875C83.1914 141.312 82.8333 140.108 82.1172 139.262C81.401 138.415 80.457 137.797 79.2852 137.406C78.1133 137.016 76.7786 136.788 75.2812 136.723C73.7839 136.658 72.2539 136.625 70.6914 136.625V221H58.1914V52.25H70.6914C73.8164 52.25 76.8763 52.3477 79.8711 52.543C82.8659 52.6732 85.5352 53.2266 87.8789 54.2031C90.2227 55.1797 92.1107 56.7422 93.543 58.8906C94.9753 60.974 95.6914 63.9688 95.6914 67.875V121ZM83.1914 67.875C83.1914 66.3125 82.9635 65.1081 82.5078 64.2617C82.1172 63.4154 81.4336 62.7969 80.457 62.4062C79.4805 62.0156 78.1784 61.7878 76.5508 61.7227C74.9883 61.6576 73.0352 61.625 70.6914 61.625V130.375C72.2539 130.375 73.7839 130.342 75.2812 130.277C76.7786 130.212 78.1133 129.984 79.2852 129.594C80.457 129.203 81.401 128.585 82.1172 127.738C82.8333 126.892 83.1914 125.688 83.1914 124.125V67.875ZM145.691 205.375C145.691 206.156 145.594 207.589 145.398 209.672C145.203 211.69 144.52 213.773 143.348 215.922C142.176 218.07 140.32 219.958 137.781 221.586C135.242 223.279 131.629 224.125 126.941 224.125C122.254 224.125 118.641 223.279 116.102 221.586C113.562 219.958 111.707 218.07 110.535 215.922C109.363 213.773 108.68 211.69 108.484 209.672C108.289 207.589 108.191 206.156 108.191 205.375V67.875C108.191 67.3542 108.224 66.5729 108.289 65.5312C108.354 64.4896 108.549 63.3503 108.875 62.1133C109.201 60.8112 109.754 59.5091 110.535 58.207C111.316 56.8398 112.391 55.6029 113.758 54.4961C115.125 53.3893 116.883 52.5104 119.031 51.8594C121.18 51.1432 123.816 50.7852 126.941 50.7852C130.066 50.7852 132.703 51.1432 134.852 51.8594C137 52.5104 138.758 53.3893 140.125 54.4961C141.492 55.6029 142.566 56.8398 143.348 58.207C144.129 59.5091 144.682 60.8112 145.008 62.1133C145.333 63.3503 145.529 64.4896 145.594 65.5312C145.659 66.5729 145.691 67.3542 145.691 67.875V205.375ZM120.691 205.375C120.691 206.156 120.724 207.1 120.789 208.207C120.854 209.249 121.082 210.258 121.473 211.234C121.863 212.211 122.482 213.057 123.328 213.773C124.174 214.424 125.379 214.75 126.941 214.75C128.504 214.75 129.708 214.424 130.555 213.773C131.401 213.057 132.02 212.211 132.41 211.234C132.801 210.258 133.029 209.249 133.094 208.207C133.159 207.1 133.191 206.156 133.191 205.375V67.875C133.191 67.0938 133.159 66.2474 133.094 65.3359C133.029 64.4245 132.801 63.6107 132.41 62.8945C132.02 62.1133 131.401 61.4622 130.555 60.9414C129.708 60.4206 128.504 60.1602 126.941 60.1602C125.379 60.1602 124.174 60.4206 123.328 60.9414C122.482 61.4622 121.863 62.1133 121.473 62.8945C121.082 63.6107 120.854 64.4245 120.789 65.3359C120.724 66.2474 120.691 67.0938 120.691 67.875V205.375ZM195.691 221H183.191L167.566 96V221H158.191V52.25H170.691L186.316 177.25V52.25H195.691V221ZM242.566 52.25V61.625H230.066V221H217.566V61.625H205.066V52.25H242.566ZM280.066 61.625H264.441V127.25H276.941V136.625H264.441V211.625H280.066V221H251.941V52.25H280.066V61.625ZM326.941 221H314.441L298.816 96V221H289.441V52.25H301.941L317.566 177.25V52.25H326.941V221ZM364.441 67.875C364.441 66.3125 364.214 65.1081 363.758 64.2617C363.367 63.4154 362.684 62.7969 361.707 62.4062C360.73 62.0156 359.428 61.7878 357.801 61.7227C356.238 61.6576 354.285 61.625 351.941 61.625V211.625C354.285 211.625 356.238 211.592 357.801 211.527C359.428 211.462 360.73 211.234 361.707 210.844C362.684 210.453 363.367 209.835 363.758 208.988C364.214 208.142 364.441 206.938 364.441 205.375V67.875ZM376.941 205.375C376.941 209.281 376.225 212.309 374.793 214.457C373.361 216.54 371.473 218.07 369.129 219.047C366.785 220.023 364.116 220.609 361.121 220.805C358.126 220.935 355.066 221 351.941 221H339.441V52.25H351.941C355.066 52.25 358.126 52.3477 361.121 52.543C364.116 52.6732 366.785 53.2266 369.129 54.2031C371.473 55.1797 373.361 56.7422 374.793 58.8906C376.225 60.974 376.941 63.9688 376.941 67.875V205.375ZM437.684 67.875C437.684 66.3125 437.456 65.1081 437 64.2617C436.609 63.4154 435.926 62.7969 434.949 62.4062C433.973 62.0156 432.671 61.7878 431.043 61.7227C429.48 61.6576 427.527 61.625 425.184 61.625V211.625C427.527 211.625 429.48 211.592 431.043 211.527C432.671 211.462 433.973 211.234 434.949 210.844C435.926 210.453 436.609 209.835 437 208.988C437.456 208.142 437.684 206.938 437.684 205.375V67.875ZM450.184 205.375C450.184 209.281 449.467 212.309 448.035 214.457C446.603 216.54 444.715 218.07 442.371 219.047C440.027 220.023 437.358 220.609 434.363 220.805C431.368 220.935 428.309 221 425.184 221H412.684V52.25H425.184C428.309 52.25 431.368 52.3477 434.363 52.543C437.358 52.6732 440.027 53.2266 442.371 54.2031C444.715 55.1797 446.603 56.7422 448.035 58.8906C449.467 60.974 450.184 63.9688 450.184 67.875V205.375ZM490.809 61.625H475.184V127.25H487.684V136.625H475.184V211.625H490.809V221H462.684V52.25H490.809V61.625ZM512.781 105.375L515.809 167.875L518.836 105.375L522.059 52.25H534.559L522.059 221H509.559L497.059 52.25H509.559L512.781 105.375ZM556.434 205.375V221H540.809V205.375H556.434Z" fill="url(#paint1_linear_13_18)" fill-opacity="0.2"/>
<defs>
<linearGradient id="paint0_linear_13_18" x1="140.54" y1="350.84" x2="470.233" y2="393.728" gradientUnits="userSpaceOnUse">
<stop stop-color="#5177FF"/>
<stop offset="0.635" stop-color="#D22CE0" stop-opacity="0.51"/>
<stop offset="1" stop-color="#7D9DBA" stop-opacity="0"/>
</linearGradient>
<linearGradient id="paint1_linear_13_18" x1="147.375" y1="166.357" x2="461.899" y2="206.389" gradientUnits="userSpaceOnUse">
<stop stop-color="#5177FF"/>
<stop offset="0.635" stop-color="#D22CE0" stop-opacity="0.46"/>
<stop offset="1" stop-color="#7D9DBA" stop-opacity="0"/>
</linearGradient>
</defs>
</svg>
